{
 "asset": {
  "version": "2.0",
  "generator": "GemRender harness casing"
 },
 "scene": 0,
 "scenes": [
  {
   "nodes": [
    0
   ]
  }
 ],
 "nodes": [
  {
   "name": "casing",
   "mesh": 0
  }
 ],
 "meshes": [
  {
   "primitives": [
    {
     "attributes": {
      "POSITION": 0,
      "NORMAL": 1,
      "TEXCOORD_0": 2
     },
     "indices": 3,
     "material": 0
    }
   ]
  }
 ],
 "materials": [
  {
   "name": "brass",
   "pbrMetallicRoughness": {
    "baseColorTexture": {
     "index": 0
    },
    "metallicFactor": 0.0
   },
   "alphaMode": "OPAQUE",
   "doubleSided": false
  }
 ],
 "textures": [
  {
   "source": 0
  }
 ],
 "images": [
  {
   "mimeType": "image/png",
   "name": "casing",
   "uri": "casing.png",
   "extras": {
    "resourceLocation": "gemrender:models/casing/casing.png"
   }
  }
 ],
 "buffers": [
  {
   "uri": "casing.bin",
   "byteLength": 2016,
   "extras": {
    "resourceLocation": "gemrender:models/casing/casing.bin"
   }
  }
 ],
 "bufferViews": [
  {
   "buffer": 0,
   "byteOffset": 0,
   "byteLength": 648,
   "target": 34962
  },
  {
   "buffer": 0,
   "byteOffset": 648,
   "byteLength": 648,
   "target": 34962
  },
  {
   "buffer": 0,
   "byteOffset": 1296,
   "byteLength": 432,
   "target": 34962
  },
  {
   "buffer": 0,
   "byteOffset": 1728,
   "byteLength": 288,
   "target": 34963
  }
 ],
 "accessors": [
  {
   "bufferView": 0,
   "componentType": 5126,
   "count": 54,
   "type": "VEC3",
   "min": [
    -0.0048,
    -0.0225,
    -0.0048
   ],
   "max": [
    0.0048,
    0.0225,
    0.0048
   ]
  },
  {
   "bufferView": 1,
   "componentType": 5126,
   "count": 54,
   "type": "VEC3"
  },
  {
   "bufferView": 2,
   "componentType": 5126,
   "count": 54,
   "type": "VEC2"
  },
  {
   "bufferView": 3,
   "componentType": 5123,
   "count": 144,
   "type": "SCALAR"
  }
 ]
}